<svg xmlns:dc="http://purl.org/dc/elements/1.1/" xmlns:cc="http://creativecommons.org/ns#" xmlns:rdf="http://www.w3.org/1999/02/22-rdf-syntax-ns#" xmlns:svg="http://www.w3.org/2000/svg" xmlns="http://www.w3.org/2000/svg" xmlns:sodipodi="http://sodipodi.sourceforge.net/DTD/sodipodi-0.dtd"  version="1.1" x="0px" y="0px" viewBox="0 0 100 50"><g transform="translate(0,-976)"><path style="font-size:medium;font-style:normal;font-variant:normal;font-weight:normal;font-stretch:normal;text-indent:0;text-align:start;text-decoration:none;line-height:normal;letter-spacing:normal;word-spacing:normal;text-transform:none;direction:ltr;block-progression:tb;writing-mode:lr-tb;text-anchor:start;baseline-shift:baseline;opacity:1;color:#fff;fill:#fff;fill-opacity:1;stroke:none;stroke-width:4;marker:none;visibility:visible;display:inline;overflow:visible;enable-background:accumulate;font-family:Sans;-inkscape-font-specification:Sans" d="M 67.90625 25.96875 A 2.0001998 2.0001998 0 0 0 66.65625 29.46875 L 86.84375 48 L 8 48 L 7.8125 48 C 6.7651593 48.049 5.8571564 49.04635 5.90625 50.09375 C 5.955344 51.14105 6.9526789 52.0493 8 52 L 86.84375 52 L 66.65625 70.5 A 2.0022756 2.0022756 0 1 0 69.34375 73.46875 L 93.34375 51.46875 A 2.0001998 2.0001998 0 0 0 93.34375 48.5 L 69.34375 26.5 A 2.0001998 2.0001998 0 0 0 67.90625 25.96875 z " transform="translate(0,952.36218)"/></g></svg>