<svg xmlns="http://www.w3.org/2000/svg" viewBox="0 0 1024 1280"><style>.a{fill:#fff;}</style><path d="M647.5 256c10 10 19.3 20.7 28 31.8 -2.6-3.4-5.2-6.7-7.8-10.1 17 22.2 31.1 46.4 42.1 72.1 -1.7-4-3.4-8-5-11.9 11.3 26.9 18.9 55.1 22.8 84 -0.6-4.4-1.2-8.9-1.8-13.3 3.7 28.7 3.7 57.7 0 86.4 0.6-4.4 1.2-8.9 1.8-13.3 -3.9 28.9-11.5 57.1-22.8 84 1.7-4 3.4-8 5-11.9 -10.9 25.7-25 49.9-42.1 72.1 2.6-3.4 5.2-6.7 7.8-10.1 -17.3 22.4-37.5 42.5-59.8 59.8 3.4-2.6 6.7-5.2 10.1-7.8 -22.2 17-46.4 31.1-72.1 42.1 4-1.7 8-3.4 11.9-5 -26.9 11.3-55.1 18.9-84 22.8 4.4-0.6 8.9-1.2 13.3-1.8 -28.7 3.7-57.7 3.7-86.4 0 4.4 0.6 8.9 1.2 13.3 1.8 -28.9-3.9-57.1-11.5-84-22.8 4 1.7 8 3.4 11.9 5 -25.7-10.9-49.9-25-72.1-42.1 3.4 2.6 6.7 5.2 10.1 7.8 -22.4-17.3-42.5-37.5-59.8-59.8 2.6 3.4 5.2 6.7 7.8 10.1 -17-22.2-31.1-46.4-42.1-72.1 1.7 4 3.4 8 5 11.9 -11.3-26.9-18.9-55.1-22.8-84 0.6 4.4 1.2 8.9 1.8 13.3 -3.7-28.7-3.7-57.7 0-86.4 -0.6 4.4-1.2 8.9-1.8 13.3 3.9-28.9 11.5-57.1 22.8-84 -1.7 4-3.4 8-5 11.9 10.9-25.7 25-49.9 42.1-72.1 -2.6 3.4-5.2 6.7-7.8 10.1 17.3-22.4 37.5-42.5 59.8-59.8 -3.4 2.6-6.7 5.2-10.1 7.8 22.2-17 46.4-31.1 72.1-42.1 -4 1.7-8 3.4-11.9 5 26.9-11.3 55.1-18.9 84-22.8 -4.4 0.6-8.9 1.2-13.3 1.8 28.7-3.7 57.7-3.7 86.4 0 -4.4-0.6-8.9-1.2-13.3-1.8 28.9 3.9 57.1 11.5 84 22.8 -4-1.7-8-3.4-11.9-5 25.7 10.9 49.9 25 72.1 42.1 -3.4-2.6-6.7-5.2-10.1-7.8C626.8 236.7 637.5 246 647.5 256c9.1 9.1 22.5 14.6 35.4 14.6 12.3 0 26.9-5.4 35.4-14.6 8.7-9.5 15.2-22 14.6-35.4 -0.6-13.2-5.1-25.8-14.6-35.4C664.6 131.9 594 93.7 519.1 81.2c-20.2-3.4-40.7-5.8-61.2-6.2 -18.8-0.4-37.4 1.2-56 3.7 -18.7 2.5-37.1 5.8-55.2 11.1 -19.7 5.8-38.9 13.5-57.6 22.1 -34.5 16-66.3 38.4-94.2 64.1 -28.5 26.3-53.2 57.8-72.1 91.7 -18 32.4-31.8 68-39.3 104.4 -7.5 36.4-10.6 74.1-7 111.2 3.6 37.5 11.4 74.1 25.9 108.9 8 19.2 16.6 38 27.6 55.7 11.1 18.1 24.1 35.2 37.9 51.4 25.2 29.4 55.9 54.9 88.9 75 31.7 19.3 67.2 34.1 103.3 43 72.1 17.8 150.8 14.8 220.5-11.5 19.5-7.4 38.8-15.8 57-26.1 18.3-10.3 35.1-22.7 51.6-35.7 30.6-24.2 56.7-54 78.2-86.4 41.3-62.2 62.8-138.8 61.1-213.4 -1.7-74.9-25.6-150.6-70.1-211.2 -12.4-16.8-25.5-32.9-40.2-47.7 -9-9.1-22.6-14.6-35.4-14.6 -12.3 0-26.9 5.4-35.4 14.6 -8.7 9.5-15.2 22-14.6 35.4C633.4 233.9 637.9 246.4 647.5 256z" class="a"/><path d="M647.5 718.2c24.3 24.3 48.7 48.7 73 73 38.8 38.8 77.6 77.6 116.4 116.4 8.9 8.9 17.9 17.9 26.8 26.8 9.1 9.1 22.5 14.6 35.4 14.6 12.3 0 26.9-5.4 35.4-14.6 8.7-9.5 15.2-22 14.6-35.4 -0.6-13.3-5.1-25.8-14.6-35.4 -24.3-24.3-48.7-48.7-73-73 -38.8-38.8-77.6-77.6-116.4-116.4 -8.9-8.9-17.9-17.9-26.8-26.8 -9.1-9.1-22.5-14.6-35.4-14.6 -12.3 0-26.9 5.4-35.4 14.6 -8.7 9.5-15.2 22-14.6 35.4C633.4 696.1 637.9 708.6 647.5 718.2L647.5 718.2z" class="a"/></svg>
