<svg xmlns="http://www.w3.org/2000/svg" viewBox="0 0 14 17.5" x="0px" y="0px"><path d="M355.646447,17.9448006 L354.944801,18.6464466 C354.749538,18.8417088 354.432956,18.8417088 354.237694,18.6464466 L350.584249,14.9930018 C349.701629,15.6013417 348.631791,15.9575251 347.478763,15.9575251 C344.452926,15.9575251 342,13.5045996 342,10.4787626 C342,7.45292555 344.452926,5 347.478763,5 C350.5046,5 352.957525,7.45292555 352.957525,10.4787626 C352.957525,11.6317914 352.601342,12.7016291 351.993002,13.584249 L355.646447,17.2376938 C355.841709,17.432956 355.841709,17.7495385 355.646447,17.9448006 L355.646447,17.9448006 Z M347.478763,13.9652478 C349.404295,13.9652478 350.965248,12.4042952 350.965248,10.4787626 C350.965248,8.55322991 349.404295,6.99227729 347.478763,6.99227729 C345.55323,6.99227729 343.992277,8.55322991 343.992277,10.4787626 C343.992277,12.4042952 345.55323,13.9652478 347.478763,13.9652478 Z" transform="translate(-342 -5)"/></svg>