<svg xmlns="http://www.w3.org/2000/svg" viewBox="0 0 48 48">
	<style type="text/css">  
	path{fill:#3dcea3;}
	</style>
	<path d="M26.4 13.7c0.4-1.3 0.6-2.6 0.6-3.3 0-1.7-1.3-3-3-3 -1.7 0-3 1.3-3 3 0 0.7 0.2 2 0.6 3.3C11 14.9 2.8 23.7 2.5 34.5h43C45.2 23.7 37 14.9 26.4 13.7zM24 18.7c-7.5 0-13.8 4.8-15.7 11.9 -0.1 0.5-0.5 0.8-1 0.8 -0.1 0-0.2 0-0.3 0 -0.6-0.2-0.9-0.7-0.7-1.3 2.2-7.9 9.5-13.5 17.7-13.5 0.6 0 1 0.5 1 1C25 18.3 24.6 18.7 24 18.7z"/>
	<path d="M46.1 36.6H1.9c-1.1 0-1.9 0.9-1.9 1.9v0.1c0 1.1 0.9 1.9 1.9 1.9h44.1c1.1 0 1.9-0.9 1.9-1.9v-0.1C48 37.5 47.1 36.6 46.1 36.6z"/>
</svg>